<svg width="36" height="36" viewBox="0 0 36 36" fill="none" xmlns="http://www.w3.org/2000/svg">
<path d="M22.5 19.5H13.5" stroke="#CFA14F" stroke-width="1.5" stroke-linecap="round"/>
<path d="M18 15L18 24" stroke="#CFA14F" stroke-width="1.5" stroke-linecap="round"/>
<path d="M14.6667 31.5H21.3333C26.0149 31.5 28.3556 31.5 30.0371 30.3969C30.7651 29.9193 31.3901 29.3057 31.8765 28.591C33 26.9401 33 24.6419 33 20.0455C33 15.449 33 13.1508 31.8765 11.4999C31.3901 10.7852 30.7651 10.1716 30.0371 9.69402C28.9567 8.9852 27.604 8.73184 25.533 8.64128C24.5447 8.64128 23.6938 7.90602 23.5 6.95455C23.2093 5.52733 21.9329 4.5 20.4505 4.5H15.5495C14.0671 4.5 12.7907 5.52733 12.5 6.95455C12.3062 7.90602 11.4553 8.64128 10.467 8.64128C8.396 8.73184 7.04333 8.9852 5.96286 9.69402C5.23493 10.1716 4.60993 10.7852 4.12354 11.4999C3 13.1508 3 15.449 3 20.0455C3 24.6419 3 26.9401 4.12354 28.591C4.60993 29.3057 5.23493 29.9193 5.96286 30.3969C7.64436 31.5 9.98513 31.5 14.6667 31.5Z" stroke="#CFA14F" stroke-width="1.5"/>
<path d="M28.5 15H27" stroke="#CFA14F" stroke-width="1.5" stroke-linecap="round"/>
</svg>
