<svg width="22" height="22" viewBox="0 0 22 22" fill="none" xmlns="http://www.w3.org/2000/svg">
<g clip-path="url(#clip0_668_22578)">
<path d="M11 22C17.0751 22 22 17.0751 22 11C22 4.92487 17.0751 0 11 0C4.92487 0 0 4.92487 0 11C0 17.0751 4.92487 22 11 22Z" fill="#F0F0F0"/>
<path d="M10.0435 11C10.0435 11 3.22825 18.7797 3.2218 18.7782C5.21237 20.7688 7.96241 22 11 22C17.0751 22 22 17.0751 22 11H10.0435Z" fill="#D80027"/>
<path d="M3.22182 3.22168C-1.07394 7.51744 -1.07394 14.4823 3.22182 18.7781C4.99699 17.0029 6.70426 15.2956 11 10.9999L3.22182 3.22168Z" fill="#0052B4"/>
</g>
<defs>
<clipPath id="clip0_668_22578">
<rect width="22" height="22" fill="white"/>
</clipPath>
</defs>
</svg>
