<svg width="24" height="24" viewBox="0 0 24 24" fill="none" xmlns="http://www.w3.org/2000/svg">
<path d="M14.2421 4.47472L15.1226 3.59419C16.5815 2.13527 18.9469 2.13527 20.4058 3.59419C21.8647 5.05311 21.8647 7.41848 20.4058 8.8774L19.5253 9.75794M14.2421 4.47472C14.2421 4.47472 14.3521 6.34586 16.0031 7.99687C17.6541 9.64787 19.5253 9.75794 19.5253 9.75794M14.2421 4.47472L6.14688 12.5699C5.59858 13.1182 5.32443 13.3924 5.08865 13.6946C4.81053 14.0512 4.57208 14.437 4.37752 14.8453C4.2126 15.1913 4.08999 15.5592 3.84478 16.2948L2.80572 19.412L2.55173 20.174C2.43106 20.536 2.52527 20.9351 2.7951 21.2049C3.06492 21.4747 3.46404 21.5689 3.82605 21.4483L4.58802 21.1943L7.70522 20.1552C8.44085 19.91 8.80866 19.7874 9.15473 19.6225C9.56296 19.4279 9.94878 19.1895 10.3054 18.9113C10.6076 18.6756 10.8818 18.4014 11.4301 17.8531L19.5253 9.75794" stroke="#0C0C0C" stroke-width="1.5"/>
</svg>
