<svg width="20" height="21" viewBox="0 0 20 21" fill="none" xmlns="http://www.w3.org/2000/svg">
<g clip-path="url(#clip0_2446_2408)">
<path d="M10 20.5C15.5228 20.5 20 16.0228 20 10.5C20 4.97715 15.5228 0.5 10 0.5C4.47715 0.5 0 4.97715 0 10.5C0 16.0228 4.47715 20.5 10 20.5Z" fill="#F0F0F0"/>
<path d="M2.06693 4.41113C1.28143 5.43312 0.689121 6.61105 0.344238 7.8907H5.5465L2.06693 4.41113Z" fill="#0052B4"/>
<path d="M19.6553 7.89066C19.3104 6.61105 18.7181 5.43313 17.9326 4.41113L14.4531 7.89066H19.6553Z" fill="#0052B4"/>
<path d="M0.344238 13.1084C0.68916 14.388 1.28147 15.5659 2.06693 16.5879L5.54639 13.1084H0.344238Z" fill="#0052B4"/>
<path d="M16.0874 2.56649C15.0655 1.78098 13.8876 1.18867 12.6079 0.84375V6.04598L16.0874 2.56649Z" fill="#0052B4"/>
<path d="M3.91113 18.4316C4.93313 19.2171 6.11106 19.8094 7.39067 20.1543V14.9521L3.91113 18.4316Z" fill="#0052B4"/>
<path d="M7.39062 0.84375C6.11102 1.18867 4.93309 1.78098 3.91113 2.56644L7.39062 6.04593V0.84375Z" fill="#0052B4"/>
<path d="M12.6079 20.1543C13.8875 19.8094 15.0654 19.2171 16.0874 18.4316L12.6079 14.9521V20.1543Z" fill="#0052B4"/>
<path d="M14.4531 13.1084L17.9326 16.5879C18.7181 15.566 19.3104 14.388 19.6553 13.1084H14.4531Z" fill="#0052B4"/>
<path d="M19.9154 9.19566H11.3044H11.3044V0.584648C10.8774 0.529063 10.4421 0.5 10 0.5C9.55785 0.5 9.12262 0.529063 8.69566 0.584648V9.19559V9.19563H0.0846484C0.0290625 9.62262 0 10.0579 0 10.5C0 10.9421 0.0290625 11.3774 0.0846484 11.8043H8.69559H8.69563V20.4154C9.12262 20.4709 9.55785 20.5 10 20.5C10.4421 20.5 10.8774 20.471 11.3043 20.4154V11.8044V11.8044H19.9154C19.9709 11.3774 20 10.9421 20 10.5C20 10.0579 19.9709 9.62262 19.9154 9.19566Z" fill="#D80027"/>
<path d="M12.6084 13.1094L17.0707 17.5718C17.276 17.3666 17.4718 17.1521 17.6586 16.9298L13.8382 13.1094H12.6084V13.1094Z" fill="#D80027"/>
<path d="M7.39109 13.1094H7.39102L2.92871 17.5717C3.13387 17.7769 3.34836 17.9727 3.5707 18.1595L7.39109 14.339V13.1094Z" fill="#D80027"/>
<path d="M7.39098 7.89117V7.89109L2.92863 3.42871C2.7234 3.63387 2.52762 3.84836 2.34082 4.0707L6.16125 7.89113H7.39098V7.89117Z" fill="#D80027"/>
<path d="M12.6084 7.89199L17.0708 3.42957C16.8656 3.22434 16.6511 3.02855 16.4288 2.8418L12.6084 6.66223V7.89199Z" fill="#D80027"/>
</g>
<defs>
<clipPath id="clip0_2446_2408">
<rect width="20" height="20" fill="white" transform="translate(0 0.5)"/>
</clipPath>
</defs>
</svg>
