<svg width="146" height="23" viewBox="0 0 146 23" fill="none" xmlns="http://www.w3.org/2000/svg">
<path fill-rule="evenodd" clip-rule="evenodd" d="M22.972 15.8371C22.972 20.362 20.6748 22.6245 16.0804 22.6245H0V18.0996H16.0804C17.6153 18.0996 18.3776 17.3488 18.3776 15.8371V0H22.972V15.8371Z" fill="#CFA14F"/>
<path fill-rule="evenodd" clip-rule="evenodd" d="M69.36 22.6245V7.72073L82.7518 20.9099L85.9967 17.7141L72.605 4.5249H87.7377V0H64.7656V22.6245H69.36Z" fill="white"/>
<path fill-rule="evenodd" clip-rule="evenodd" d="M42.5146 16.7806C42.5146 20.9301 40.4131 22.9998 36.1999 22.9998H31.9866C27.7734 22.9998 25.6719 20.9301 25.6719 16.7806V11.8803C25.6719 7.73082 27.7734 5.66113 31.9866 5.66113H36.1999C40.4131 5.66113 42.5146 7.73082 42.5146 11.8803V16.7806ZM38.3013 16.7806V11.8803C38.3013 10.5005 37.6009 9.81065 36.1999 9.81065H31.9866C30.5856 9.81065 29.8851 10.5005 29.8851 11.8803V16.7806C29.8851 18.1604 30.5856 18.8503 31.9866 18.8503H36.1999C37.6009 18.8503 38.3013 18.1604 38.3013 16.7806Z" fill="#CFA14F"/>
<path fill-rule="evenodd" clip-rule="evenodd" d="M62.0537 16.4053C62.0537 20.5548 59.9522 22.6245 55.7389 22.6245H45.2109V0H49.4242V6.03657H55.7389C59.9522 6.03657 62.0537 8.10625 62.0537 12.2558V16.4053ZM49.4139 18.475H55.7286C57.1296 18.475 57.8301 17.7851 57.8301 16.4053V12.2558C57.8301 10.876 57.1296 10.1861 55.7286 10.1861H49.4139V18.4851V18.475Z" fill="#CFA14F"/>
<path d="M94.6391 0H90.4258V22.6245H94.6391V0Z" fill="white"/>
<path fill-rule="evenodd" clip-rule="evenodd" d="M114.574 16.0201V11.8706C114.574 7.72105 112.431 5.65137 108.136 5.65137H103.768C99.4825 5.65137 97.3398 7.72105 97.3398 11.8706V16.3955C97.3398 20.545 99.4413 22.6147 103.655 22.6147H113.801V18.4651H103.655C102.254 18.4651 101.553 17.7752 101.553 16.3955V16.0201H114.574ZM101.553 11.8807C101.553 10.5009 102.254 9.81102 103.655 9.81102H108.249C109.65 9.81102 110.35 10.5009 110.35 11.8807H101.543H101.553Z" fill="white"/>
<path fill-rule="evenodd" clip-rule="evenodd" d="M134.493 16.0201V11.8706C134.493 7.72105 132.351 5.65137 128.065 5.65137H123.698C119.412 5.65137 117.27 7.72105 117.27 11.8706V16.3955C117.27 20.545 119.371 22.6147 123.584 22.6147H133.731V18.4651H123.584C122.183 18.4651 121.483 17.7752 121.483 16.3955V16.0201H134.504H134.493ZM121.472 11.8807C121.472 10.5009 122.173 9.81102 123.574 9.81102H128.168C129.569 9.81102 130.27 10.5009 130.27 11.8807H121.462H121.472Z" fill="white"/>
<path fill-rule="evenodd" clip-rule="evenodd" d="M137.191 10.1759H139.489V22.6245H143.692V10.1759H145.999V6.02643H143.692V0H139.489V6.02643H137.191V10.1759Z" fill="white"/>
</svg>
