<svg width="22" height="23" viewBox="0 0 22 23" fill="none" xmlns="http://www.w3.org/2000/svg">
<path d="M7.33337 15.1668C7.33337 17.7596 7.33337 19.0559 8.13883 19.8614C8.94429 20.6668 10.2406 20.6668 12.8334 20.6668H13.75C16.3428 20.6668 17.6391 20.6668 18.4446 19.8614C19.25 19.0559 19.25 17.7596 19.25 15.1668V7.8335C19.25 5.24077 19.25 3.94441 18.4446 3.13895C17.6391 2.3335 16.3428 2.3335 13.75 2.3335H12.8334C10.2406 2.3335 8.94429 2.3335 8.13883 3.13895C7.33337 3.94441 7.33337 5.24077 7.33337 7.8335" stroke="#EB5757" stroke-width="1.5" stroke-linecap="round"/>
<path d="M7.33333 18.375C5.17273 18.375 4.09243 18.375 3.42121 17.7038C2.75 17.0326 2.75 15.9523 2.75 13.7917V9.20833C2.75 7.04773 2.75 5.96743 3.42121 5.29621C4.09243 4.625 5.17273 4.625 7.33333 4.625" stroke="#EB5757" stroke-width="1.5"/>
<path d="M5.5 11.5002L13.75 11.5002M13.75 11.5002L11.4583 13.7918M13.75 11.5002L11.4583 9.2085" stroke="#EB5757" stroke-width="1.5" stroke-linecap="round" stroke-linejoin="round"/>
</svg>
