<svg width="175" height="28" viewBox="0 0 175 28" fill="none" xmlns="http://www.w3.org/2000/svg">
<path fill-rule="evenodd" clip-rule="evenodd" d="M27.5347 19.28C27.5347 24.7886 24.7813 27.5429 19.2743 27.5429H0V22.0343H19.2743C21.1141 22.0343 22.0278 21.1203 22.0278 19.28V0H27.5347V19.28Z" fill="#CFA14F"/>
<path fill-rule="evenodd" clip-rule="evenodd" d="M83.1352 27.5429V9.39917L99.1868 25.4556L103.076 21.565L87.0246 5.50858H105.163V0H77.6282V27.5429H83.1352Z" fill="#0C0C0C"/>
<path fill-rule="evenodd" clip-rule="evenodd" d="M50.9578 20.4289C50.9578 25.4805 48.4389 28.0001 43.3888 28.0001H38.3387C33.2886 28.0001 30.7698 25.4805 30.7698 20.4289V14.4633C30.7698 9.41172 33.2886 6.89209 38.3387 6.89209H43.3888C48.4389 6.89209 50.9578 9.41172 50.9578 14.4633V20.4289ZM45.9077 20.4289V14.4633C45.9077 12.7836 45.0681 11.9437 43.3888 11.9437H38.3387C36.6595 11.9437 35.8199 12.7836 35.8199 14.4633V20.4289C35.8199 22.1086 36.6595 22.9485 38.3387 22.9485H43.3888C45.0681 22.9485 45.9077 22.1086 45.9077 20.4289Z" fill="#CFA14F"/>
<path fill-rule="evenodd" clip-rule="evenodd" d="M74.3808 19.9717C74.3808 25.0233 71.862 27.5429 66.8119 27.5429H54.1928V0H59.2429V7.34889H66.8119C71.862 7.34889 74.3808 9.86851 74.3808 14.9201V19.9717ZM59.2306 22.4913H66.7995C68.4788 22.4913 69.3184 21.6514 69.3184 19.9717V14.9201C69.3184 13.2404 68.4788 12.4005 66.7995 12.4005H59.2306V22.5037V22.4913Z" fill="#CFA14F"/>
<path d="M113.436 0H108.386V27.5429H113.436V0Z" fill="#0C0C0C"/>
<path fill-rule="evenodd" clip-rule="evenodd" d="M137.328 19.5022V14.4506C137.328 9.39901 134.76 6.87939 129.611 6.87939H124.375C119.239 6.87939 116.671 9.39901 116.671 14.4506V19.9592C116.671 25.0108 119.19 27.5304 124.24 27.5304H136.402V22.4788H124.24C122.56 22.4788 121.721 21.6389 121.721 19.9592V19.5022H137.328ZM121.721 14.463C121.721 12.7832 122.56 11.9433 124.24 11.9433H129.747C131.426 11.9433 132.266 12.7832 132.266 14.463H121.708H121.721Z" fill="#0C0C0C"/>
<path fill-rule="evenodd" clip-rule="evenodd" d="M161.208 19.5022V14.4506C161.208 9.39901 158.64 6.87939 153.503 6.87939H148.268C143.131 6.87939 140.563 9.39901 140.563 14.4506V19.9592C140.563 25.0108 143.082 27.5304 148.132 27.5304H160.294V22.4788H148.132C146.453 22.4788 145.613 21.6389 145.613 19.9592V19.5022H161.22H161.208ZM145.601 14.463C145.601 12.7832 146.44 11.9433 148.12 11.9433H153.627C155.306 11.9433 156.145 12.7832 156.145 14.463H145.588H145.601Z" fill="#0C0C0C"/>
<path fill-rule="evenodd" clip-rule="evenodd" d="M164.443 12.3881H167.196V27.5429H172.234V12.3881H175V7.33654H172.234V0H167.196V7.33654H164.443V12.3881Z" fill="#0C0C0C"/>
</svg>
