<svg width="24" height="25" viewBox="0 0 24 25" fill="none" xmlns="http://www.w3.org/2000/svg">
<mask id="mask0_668_23036" style="mask-type:alpha" maskUnits="userSpaceOnUse" x="0" y="0" width="24" height="25">
<rect y="0.5" width="24" height="24" fill="#D9D9D9"/>
</mask>
<g mask="url(#mask0_668_23036)">
<path d="M12 19.7695C11.5875 19.7695 11.2344 19.6225 10.9408 19.3287C10.6469 19.035 10.5 18.682 10.5 18.2695C10.5 17.857 10.6469 17.5038 10.9408 17.21C11.2344 16.9163 11.5875 16.7695 12 16.7695C12.4125 16.7695 12.7656 16.9163 13.0592 17.21C13.3531 17.5038 13.5 17.857 13.5 18.2695C13.5 18.682 13.3531 19.035 13.0592 19.3287C12.7656 19.6225 12.4125 19.7695 12 19.7695ZM12 14.0002C11.5875 14.0002 11.2344 13.8533 10.9408 13.5595C10.6469 13.2658 10.5 12.9127 10.5 12.5002C10.5 12.0877 10.6469 11.7346 10.9408 11.441C11.2344 11.1471 11.5875 11.0002 12 11.0002C12.4125 11.0002 12.7656 11.1471 13.0592 11.441C13.3531 11.7346 13.5 12.0877 13.5 12.5002C13.5 12.9127 13.3531 13.2658 13.0592 13.5595C12.7656 13.8533 12.4125 14.0002 12 14.0002ZM12 8.23096C11.5875 8.23096 11.2344 8.08412 10.9408 7.79046C10.6469 7.49662 10.5 7.14346 10.5 6.73096C10.5 6.31846 10.6469 5.96537 10.9408 5.67171C11.2344 5.37787 11.5875 5.23096 12 5.23096C12.4125 5.23096 12.7656 5.37787 13.0592 5.67171C13.3531 5.96537 13.5 6.31846 13.5 6.73096C13.5 7.14346 13.3531 7.49662 13.0592 7.79046C12.7656 8.08412 12.4125 8.23096 12 8.23096Z" fill="#737373"/>
</g>
</svg>
