<svg width="24" height="25" viewBox="0 0 24 25" fill="none" xmlns="http://www.w3.org/2000/svg">
<path d="M14.2421 4.97472L15.1226 4.09419C16.5815 2.63527 18.9469 2.63527 20.4058 4.09419C21.8647 5.55311 21.8647 7.91848 20.4058 9.3774L19.5253 10.2579M14.2421 4.97472C14.2421 4.97472 14.3521 6.84586 16.0031 8.49687C17.6541 10.1479 19.5253 10.2579 19.5253 10.2579M14.2421 4.97472L6.14688 13.0699C5.59858 13.6182 5.32443 13.8924 5.08865 14.1946C4.81053 14.5512 4.57208 14.937 4.37752 15.3453C4.2126 15.6913 4.08999 16.0592 3.84478 16.7948L2.80572 19.912L2.55173 20.674C2.43106 21.036 2.52527 21.4351 2.7951 21.7049C3.06492 21.9747 3.46404 22.0689 3.82605 21.9483L4.58802 21.6943L7.70522 20.6552C8.44085 20.41 8.80866 20.2874 9.15473 20.1225C9.56296 19.9279 9.94878 19.6895 10.3054 19.4113C10.6076 19.1756 10.8818 18.9014 11.4301 18.3531L19.5253 10.2579" stroke="#CFA14F" stroke-width="1.5"/>
</svg>
