<svg width="20" height="21" viewBox="0 0 20 21" fill="none" xmlns="http://www.w3.org/2000/svg">
<g clip-path="url(#clip0_2446_2430)">
<path d="M10 20.5C15.5228 20.5 20 16.0228 20 10.5C20 4.97715 15.5228 0.5 10 0.5C4.47715 0.5 0 4.97715 0 10.5C0 16.0228 4.47715 20.5 10 20.5Z" fill="#F0F0F0"/>
<path d="M10 0.5C4.47719 0.5 0 4.97719 0 10.5C0 11.7232 0.220039 12.895 0.621992 13.9782H19.378C19.78 12.895 20 11.7232 20 10.5C20 4.97719 15.5228 0.5 10 0.5Z" fill="#0052B4"/>
<path d="M10.0006 0.5C5.70092 0.5 2.03549 3.21375 0.622559 7.02176H19.3786C17.9656 3.21375 14.3002 0.5 10.0006 0.5Z" fill="#D80027"/>
<path d="M2.58643 6.15234V11.1409C2.58643 13.9785 6.2935 14.848 6.2935 14.848C6.2935 14.848 10.0005 13.9785 10.0005 11.1409V6.15234H2.58643Z" fill="#D80027"/>
<path d="M4.11816 7.0218H8.46602V5.28266L7.59645 5.71742L6.29211 4.41309L4.98773 5.71742L4.11816 5.28266V7.0218Z" fill="#FFDA44"/>
<path d="M9.12973 11.8349L6.30363 9.00879L3.47754 11.8349L4.39984 12.7572L6.30363 10.8534L8.20742 12.7572L9.12973 11.8349Z" fill="#FFDA44"/>
<path d="M9.12973 9.19488H7.81113C7.88527 9.06691 7.9284 8.91871 7.9284 8.7602C7.9284 8.27988 7.53906 7.89062 7.05883 7.89062C6.72699 7.89062 6.43883 8.07648 6.29223 8.34973C6.14562 8.07652 5.85746 7.89062 5.52562 7.89062C5.04539 7.89062 4.65605 8.27988 4.65605 8.7602C4.65605 8.91871 4.69918 9.06695 4.77332 9.19488H3.47754C3.47754 9.67516 3.89586 10.0645 4.37605 10.0645H4.34711C4.34711 10.5447 4.73641 10.934 5.21668 10.934C5.21668 11.3593 5.52207 11.7125 5.92539 11.7882L5.24023 13.3351C5.56859 13.4686 5.92742 13.5427 6.30367 13.5427C6.67992 13.5427 7.03875 13.4686 7.36711 13.3351L6.68195 11.7882C7.08527 11.7126 7.39066 11.3593 7.39066 10.934C7.87094 10.934 8.26023 10.5447 8.26023 10.0645H8.23129C8.71144 10.0645 9.12973 9.67512 9.12973 9.19488Z" fill="#F0F0F0"/>
</g>
<defs>
<clipPath id="clip0_2446_2430">
<rect width="20" height="20" fill="white" transform="translate(0 0.5)"/>
</clipPath>
</defs>
</svg>
