<svg width="20" height="21" viewBox="0 0 20 21" fill="none" xmlns="http://www.w3.org/2000/svg">
<g clip-path="url(#clip0_2446_2442)">
<path d="M10 20.5C15.5228 20.5 20 16.0228 20 10.5C20 4.97715 15.5228 0.5 10 0.5C4.47715 0.5 0 4.97715 0 10.5C0 16.0228 4.47715 20.5 10 20.5Z" fill="#F0F0F0"/>
<path d="M19.378 13.978C19.78 12.8946 20 11.7229 20 10.4997C20 9.27652 19.78 8.1048 19.378 7.02148H0.621992C0.220039 8.1048 0 9.27652 0 10.4997C0 11.7229 0.220039 12.8946 0.621992 13.978L10 14.8475L19.378 13.978Z" fill="#0052B4"/>
<path d="M10.0006 20.4993C14.3002 20.4993 17.9656 17.7856 19.3786 13.9775H0.622559C2.03549 17.7856 5.70092 20.4993 10.0006 20.4993Z" fill="#D80027"/>
</g>
<defs>
<clipPath id="clip0_2446_2442">
<rect width="20" height="20" fill="white" transform="translate(0 0.5)"/>
</clipPath>
</defs>
</svg>
