<svg width="22" height="22" viewBox="0 0 22 22" fill="none" xmlns="http://www.w3.org/2000/svg">
<path d="M18.7917 5.5H3.20825" stroke="#0C0C0C" stroke-opacity="0.55" stroke-width="1.5" stroke-linecap="round"/>
<path d="M17.2639 7.79102L16.8422 14.1152C16.68 16.5489 16.5989 17.7657 15.806 18.5075C15.013 19.2493 13.7935 19.2493 11.3544 19.2493H10.6455C8.20645 19.2493 6.98691 19.2493 6.19399 18.5075C5.40106 17.7657 5.31994 16.5489 5.1577 14.1152L4.73608 7.79102" stroke="#0C0C0C" stroke-opacity="0.55" stroke-width="1.5" stroke-linecap="round"/>
<path d="M8.70825 10.084L9.16659 14.6673" stroke="#0C0C0C" stroke-opacity="0.55" stroke-width="1.5" stroke-linecap="round"/>
<path d="M13.2916 10.084L12.8333 14.6673" stroke="#0C0C0C" stroke-opacity="0.55" stroke-width="1.5" stroke-linecap="round"/>
<path d="M5.95825 5.5C6.00947 5.5 6.03509 5.5 6.05831 5.49941C6.81313 5.48028 7.47902 5.00033 7.73587 4.29029C7.74377 4.26845 7.75187 4.24415 7.76806 4.19556L7.85706 3.92857C7.93303 3.70066 7.97102 3.58669 8.02141 3.48993C8.22243 3.1039 8.59435 2.83583 9.02414 2.7672C9.13187 2.75 9.25199 2.75 9.49224 2.75H12.5076C12.7478 2.75 12.868 2.75 12.9757 2.7672C13.4055 2.83583 13.7774 3.1039 13.9784 3.48993C14.0288 3.58669 14.0668 3.70065 14.1428 3.92857L14.2318 4.19556C14.2479 4.24409 14.2561 4.26847 14.264 4.29029C14.5208 5.00033 15.1867 5.48028 15.9415 5.49941C15.9647 5.5 15.9904 5.5 16.0416 5.5" stroke="#0C0C0C" stroke-opacity="0.55" stroke-width="1.5"/>
</svg>
