<svg width="24" height="25" viewBox="0 0 24 25" fill="none" xmlns="http://www.w3.org/2000/svg">
<path d="M7 15.5L7 9.5" stroke="#CFA14F" stroke-width="1.5" stroke-linecap="round" stroke-linejoin="round"/>
<path d="M20.8333 9.5H18.2308C16.4465 9.5 15 10.8431 15 12.5C15 14.1569 16.4465 15.5 18.2308 15.5H20.8333C20.9167 15.5 20.9583 15.5 20.9935 15.4979C21.5328 15.465 21.9623 15.0662 21.9977 14.5654C22 14.5327 22 14.494 22 14.4167V10.5833C22 10.506 22 10.4673 21.9977 10.4346C21.9623 9.93384 21.5328 9.53496 20.9935 9.50214C20.9583 9.5 20.9167 9.5 20.8333 9.5Z" stroke="#CFA14F" stroke-width="1.5"/>
<path d="M20.965 9.5C20.8873 7.6277 20.6366 6.47975 19.8284 5.67157C18.6569 4.5 16.7712 4.5 13 4.5L10 4.5C6.22876 4.5 4.34315 4.5 3.17157 5.67157C2 6.84315 2 8.72876 2 12.5C2 16.2712 2 18.1569 3.17157 19.3284C4.34315 20.5 6.22876 20.5 10 20.5H13C16.7712 20.5 18.6569 20.5 19.8284 19.3284C20.6366 18.5203 20.8873 17.3723 20.965 15.5" stroke="#CFA14F" stroke-width="1.5"/>
<path d="M17.9922 12.5H18.0012" stroke="#CFA14F" stroke-width="2" stroke-linecap="round" stroke-linejoin="round"/>
</svg>
